<svg width="23" height="19" viewBox="0 0 23 19" fill="none" xmlns="http://www.w3.org/2000/svg">
<path d="M3.06641 18.623C1.02539 18.623 0 17.6074 0 15.5957V5.37109C0 3.35938 1.02539 2.35352 3.06641 2.35352H5.2832C6.04492 2.35352 6.28906 2.1875 6.71875 1.70898L7.5 0.830078C7.98828 0.292969 8.48633 0 9.49219 0H13.3887C14.3945 0 14.8926 0.292969 15.3809 0.830078L16.1719 1.70898C16.6016 2.19727 16.8457 2.35352 17.6074 2.35352H19.8828C21.9238 2.35352 22.9492 3.35938 22.9492 5.37109V15.5957C22.9492 17.6074 21.9238 18.623 19.8828 18.623H3.06641ZM3.08594 17.0508H19.8633C20.8301 17.0508 21.377 16.5332 21.377 15.5176V5.45898C21.377 4.44336 20.8301 3.92578 19.8633 3.92578H17.2168C16.3379 3.92578 15.8594 3.75977 15.3809 3.21289L14.6094 2.35352C14.0527 1.72852 13.7695 1.57227 12.9004 1.57227H9.98047C9.12109 1.57227 8.83789 1.72852 8.27148 2.35352L7.50977 3.21289C7.02148 3.75977 6.55273 3.92578 5.67383 3.92578H3.08594C2.12891 3.92578 1.57227 4.44336 1.57227 5.45898V15.5176C1.57227 16.5332 2.12891 17.0508 3.08594 17.0508ZM11.4746 15.498C8.52539 15.498 6.15234 13.125 6.15234 10.1562C6.15234 7.1875 8.52539 4.81445 11.4746 4.81445C14.4336 4.81445 16.8066 7.1875 16.8066 10.1562C16.8066 13.125 14.4336 15.498 11.4746 15.498ZM18.4961 7.77344C17.832 7.77344 17.2852 7.23633 17.2852 6.57227C17.2852 5.89844 17.832 5.36133 18.4961 5.36133C19.1602 5.36133 19.707 5.89844 19.707 6.57227C19.707 7.23633 19.1602 7.77344 18.4961 7.77344ZM11.4746 14.0137C13.6035 14.0137 15.332 12.2949 15.332 10.1562C15.332 8.01758 13.6035 6.29883 11.4746 6.29883C9.3457 6.29883 7.62695 8.01758 7.62695 10.1562C7.62695 12.2949 9.35547 14.0137 11.4746 14.0137Z" fill="#0A1014"/>
</svg>
