<svg width="21" height="21" viewBox="0 0 21 21" fill="none" xmlns="http://www.w3.org/2000/svg">
<path d="M15.5977 21.001C14.5736 21.001 13.4886 20.7933 12.3428 20.3779C11.1969 19.9626 10.0296 19.3574 8.84082 18.5625C7.65202 17.7676 6.48828 16.7972 5.34961 15.6514C4.19661 14.5055 3.22266 13.3382 2.42773 12.1494C1.63281 10.9606 1.02767 9.79329 0.612305 8.64746C0.204102 7.49447 0 6.40592 0 5.38184C0 4.76595 0.0572917 4.21094 0.171875 3.7168C0.29362 3.22266 0.479818 2.77148 0.730469 2.36328C0.98112 1.95508 1.31055 1.57194 1.71875 1.21387C1.76172 1.1709 1.80469 1.13151 1.84766 1.0957C1.89779 1.05273 1.94434 1.00977 1.9873 0.966797C2.71061 0.322266 3.40527 0.00716146 4.07129 0.0214844C4.45801 0.0286458 4.8304 0.14681 5.18848 0.375977C5.55371 0.597982 5.90104 0.948893 6.23047 1.42871L8.35742 4.47949C8.62956 4.86621 8.74772 5.27441 8.71191 5.7041C8.67611 6.12663 8.55436 6.5026 8.34668 6.83203L7.37988 8.34668C7.20801 8.61165 7.18652 8.85872 7.31543 9.08789C7.49447 9.39583 7.76302 9.77181 8.12109 10.2158C8.48633 10.6598 8.87305 11.0859 9.28125 11.4941C9.55339 11.7663 9.85059 12.0456 10.1729 12.332C10.4951 12.6113 10.7995 12.8656 11.0859 13.0947C11.3724 13.3167 11.5944 13.4779 11.752 13.5781C11.9095 13.6712 12.0599 13.7214 12.2031 13.7285C12.3464 13.7285 12.5003 13.6927 12.665 13.6211L14.3301 12.8047C14.8457 12.554 15.2969 12.4395 15.6836 12.4609C16.0775 12.4753 16.4785 12.6221 16.8867 12.9014L19.583 14.749C20.0628 15.0785 20.4137 15.4294 20.6357 15.8018C20.8649 16.167 20.9795 16.543 20.9795 16.9297C20.9795 17.2591 20.9007 17.5993 20.7432 17.9502C20.5928 18.2939 20.3564 18.6449 20.0342 19.0029C19.9912 19.0531 19.9482 19.0996 19.9053 19.1426C19.8695 19.1855 19.8301 19.2321 19.7871 19.2822C19.2428 19.891 18.6413 20.3278 17.9824 20.5928C17.3307 20.8649 16.5358 21.001 15.5977 21.001ZM15.6084 19.3682C16.2028 19.3538 16.7507 19.2428 17.252 19.0352C17.7533 18.8275 18.1901 18.5124 18.5625 18.0898C18.5911 18.054 18.6162 18.0218 18.6377 17.9932C18.6663 17.9645 18.695 17.9323 18.7236 17.8965C19.0101 17.5671 19.1533 17.2412 19.1533 16.9189C19.1533 16.7542 19.1175 16.6038 19.0459 16.4678C18.9814 16.3317 18.8704 16.2135 18.7129 16.1133L16.1992 14.4268C16.0273 14.3193 15.8555 14.2549 15.6836 14.2334C15.5189 14.2119 15.3327 14.2477 15.125 14.3408L13.3203 15.2002C12.819 15.4437 12.4036 15.5475 12.0742 15.5117C11.7448 15.4759 11.4189 15.3398 11.0967 15.1035C10.846 14.9316 10.5452 14.7025 10.1943 14.416C9.84342 14.1296 9.48535 13.8252 9.12012 13.5029C8.76204 13.1807 8.44694 12.8835 8.1748 12.6113C7.75944 12.2031 7.33333 11.7305 6.89648 11.1934C6.4668 10.6562 6.09798 10.1836 5.79004 9.77539C5.55371 9.45312 5.42122 9.13802 5.39258 8.83008C5.36393 8.51497 5.46777 8.16764 5.7041 7.78809L6.77832 6.06934C6.97884 5.73275 6.99316 5.43913 6.82129 5.18848L4.8877 2.28809C4.69434 1.99447 4.42578 1.84766 4.08203 1.84766C3.93164 1.84766 3.77051 1.88346 3.59863 1.95508C3.43392 2.02669 3.26921 2.13411 3.10449 2.27734C3.07585 2.30599 3.04362 2.33464 3.00781 2.36328C2.97917 2.38477 2.94694 2.40983 2.91113 2.43848C2.48861 2.81087 2.16992 3.24772 1.95508 3.74902C1.7474 4.24316 1.63997 4.78385 1.63281 5.37109C1.61133 6.28776 1.81901 7.27962 2.25586 8.34668C2.69987 9.40658 3.29785 10.4736 4.0498 11.5479C4.80176 12.6149 5.64681 13.6139 6.58496 14.5449C7.50879 15.4688 8.49349 16.2995 9.53906 17.0371C10.5918 17.7676 11.6374 18.3405 12.6758 18.7559C13.7214 19.1784 14.6989 19.3825 15.6084 19.3682Z" fill="#0A1014"/>
</svg>
