<svg width="29" height="28" viewBox="0 0 29 28" fill="none" xmlns="http://www.w3.org/2000/svg">
<path d="M5.78223 23.085C3.16113 23.085 1.59277 21.5596 1.59277 18.9492V9.57129C1.59277 6.9502 3.2793 5.4248 5.78223 5.4248H17.0078C19.6289 5.4248 21.1973 6.9502 21.1973 9.57129V11.043L25.2578 7.60547C25.6875 7.25098 26.1602 7.00391 26.6006 7.00391C27.5459 7.00391 28.1689 7.70215 28.1689 8.70117V19.8086C28.1689 20.8076 27.5459 21.5059 26.6006 21.5059C26.1602 21.5059 25.6875 21.2588 25.2578 20.9043L21.1973 17.4668V18.9492C21.1973 21.5596 19.6289 23.085 17.0078 23.085H5.78223ZM6.08301 21.4736H16.707C18.458 21.4736 19.4678 20.5605 19.4678 18.6914V9.81836C19.4678 7.95996 18.458 7.04688 16.707 7.04688H6.08301C4.32129 7.04688 3.32227 7.95996 3.32227 9.81836V18.6914C3.32227 20.5605 4.32129 21.4736 6.08301 21.4736ZM26.0635 19.4434C26.1602 19.5078 26.2246 19.5723 26.3213 19.5723C26.4502 19.5723 26.5039 19.4648 26.5039 19.3145V9.19531C26.5039 9.04492 26.4502 8.94824 26.3213 8.94824C26.2246 8.94824 26.1602 8.99121 26.0635 9.06641L21.1973 13.084V15.4258L26.0635 19.4434Z" fill="#0A0A0A"/>
</svg>
