<svg width="19" height="18" viewBox="0 0 19 18" fill="none" xmlns="http://www.w3.org/2000/svg">
<path d="M10.6045 4.6499L10.9409 4.92285C11.0679 5.01595 11.1313 5.14079 11.1313 5.29736C11.1313 5.39893 11.0954 5.49837 11.0234 5.5957L4.37744 14.0127C4.31396 14.0973 4.23356 14.1629 4.13623 14.2095C4.0389 14.256 3.93734 14.2793 3.83154 14.2793C3.64535 14.2793 3.47819 14.2116 3.33008 14.0762L0.333984 11.0801C0.240885 10.987 0.194336 10.8727 0.194336 10.7373C0.194336 10.6019 0.240885 10.4897 0.333984 10.4009L0.64502 10.0898C0.74235 9.99251 0.856608 9.94385 0.987793 9.94385C1.05127 9.94385 1.11263 9.95654 1.17188 9.98193C1.23112 10.0073 1.2819 10.0433 1.32422 10.0898L3.72998 12.3623L9.91895 4.72607C10.0247 4.60758 10.1517 4.54834 10.2998 4.54834C10.4225 4.54834 10.5241 4.58219 10.6045 4.6499ZM6.6499 13.0034C6.5568 12.9061 6.51025 12.7918 6.51025 12.6606C6.51025 12.5422 6.55257 12.4342 6.63721 12.3369L6.9292 12.0068C7.0223 11.901 7.1429 11.8481 7.29102 11.8481C7.4222 11.8481 7.52799 11.8883 7.6084 11.9688C7.7819 12.0872 7.96387 12.2057 8.1543 12.3242L14.2988 4.75146C14.4046 4.63298 14.5295 4.57373 14.6733 4.57373C14.7918 4.57373 14.8913 4.60758 14.9717 4.67529L15.3271 4.94824C15.4456 5.05404 15.5049 5.17887 15.5049 5.32275C15.5049 5.43701 15.4689 5.53646 15.397 5.62109L8.77637 14.0127C8.70866 14.0973 8.62614 14.1629 8.52881 14.2095C8.43148 14.256 8.32992 14.2793 8.22412 14.2793C8.02946 14.2793 7.86442 14.2116 7.729 14.0762L6.6499 13.0034Z" fill="#007BFC"/>
</svg>
